{
    "asset" : {
        "generator" : "Khronos glTF Blender I/O v3.2.40",
        "version" : "2.0"
    },
    "scene" : 0,
    "scenes" : [
        {
            "name" : "Scene",
            "nodes" : [
                0
            ]
        }
    ],
    "nodes" : [
        {
            "mesh" : 0,
            "name" : "Sphere"
        }
    ],
    "meshes" : [
        {
            "name" : "Sphere.001",
            "primitives" : [
                {
                    "attributes" : {
                        "POSITION" : 0,
                        "NORMAL" : 1,
                        "TEXCOORD_0" : 2
                    },
                    "indices" : 3
                }
            ]
        }
    ],
    "accessors" : [
        {
            "bufferView" : 0,
            "componentType" : 5126,
            "count" : 2816,
            "max" : [
                0.9999998807907104,
                0.7306287884712219,
                1.7881393432617188e-07
            ],
            "min" : [
                -0.9999996423721313,
                -0.7306287288665771,
                -1
            ],
            "type" : "VEC3"
        },
        {
            "bufferView" : 1,
            "componentType" : 5126,
            "count" : 2816,
            "type" : "VEC3"
        },
        {
            "bufferView" : 2,
            "componentType" : 5126,
            "count" : 2816,
            "type" : "VEC2"
        },
        {
            "bufferView" : 3,
            "componentType" : 5123,
            "count" : 4224,
            "type" : "SCALAR"
        }
    ],
    "bufferViews" : [
        {
            "buffer" : 0,
            "byteLength" : 33792,
            "byteOffset" : 0
        },
        {
            "buffer" : 0,
            "byteLength" : 33792,
            "byteOffset" : 33792
        },
        {
            "buffer" : 0,
            "byteLength" : 22528,
            "byteOffset" : 67584
        },
        {
            "buffer" : 0,
            "byteLength" : 8448,
            "byteOffset" : 90112
        }
    ],
    "buffers" : [
        {
            "byteLength" : 98560,
            "uri" : "data:application/octet-stream;base64,"
        }
    ]
}
